<svg width="20" height="20" viewBox="0 0 20 20" fill="none" xmlns="http://www.w3.org/2000/svg">
<path d="M15.3033 4.6967C18.2323 7.62563 18.2323 12.3744 15.3033 15.3033C12.3744 18.2322 7.62568 18.2322 4.69676 15.3033C1.76783 12.3743 1.76783 7.62562 4.69676 4.6967C7.62569 1.76777 12.3744 1.76777 15.3033 4.6967" stroke="white" stroke-width="1.5" stroke-linecap="round" stroke-linejoin="round"/>
<path fill-rule="evenodd" clip-rule="evenodd" d="M11.4208 12.778H9.08165C8.56665 12.778 8.14832 12.3605 8.14832 11.8446V10.043H11.4208C12.17 10.043 12.7783 10.6505 12.7783 11.4005V11.4213C12.7775 12.1705 12.17 12.778 11.4208 12.778V12.778Z" stroke="white" stroke-width="1.5" stroke-linecap="round" stroke-linejoin="round"/>
<path fill-rule="evenodd" clip-rule="evenodd" d="M11.0916 10.0427H8.14832V8.17016C8.14832 7.64682 8.57248 7.22266 9.09582 7.22266H11.0916C11.8525 7.22266 12.47 7.83932 12.47 8.60099V8.66516C12.47 9.42599 11.8533 10.0427 11.0916 10.0427Z" stroke="white" stroke-width="1.5" stroke-linecap="round" stroke-linejoin="round"/>
<path d="M9.07498 7.22526H7.22498" stroke="white" stroke-width="1.5" stroke-linecap="round" stroke-linejoin="round"/>
<path d="M9.08331 12.7751H7.22498" stroke="white" stroke-width="1.5" stroke-linecap="round" stroke-linejoin="round"/>
<path d="M11.025 6.2998V7.2248" stroke="white" stroke-width="1.5" stroke-linecap="round" stroke-linejoin="round"/>
<path d="M8.74998 6.2998V7.2248" stroke="white" stroke-width="1.5" stroke-linecap="round" stroke-linejoin="round"/>
<path d="M8.74998 13.7004V12.7754" stroke="white" stroke-width="1.5" stroke-linecap="round" stroke-linejoin="round"/>
<path d="M11.025 13.7004V12.7754" stroke="white" stroke-width="1.5" stroke-linecap="round" stroke-linejoin="round"/>
</svg>
