<svg width="20" height="20" viewBox="0 0 20 20" fill="none" xmlns="http://www.w3.org/2000/svg">
<path d="M18.3333 10.0003C18.3333 7.76391 17.4523 5.73325 16.0185 4.23647M18.3333 10.0003C18.3333 12.2367 17.4523 14.2674 16.0185 15.7642M18.3333 10.0003H1.66663M9.99996 18.3337C12.3659 18.3337 14.5016 17.3477 16.0185 15.7642M9.99996 18.3337C7.634 18.3337 5.49834 17.3477 3.98144 15.7642M9.99996 18.3337V1.66699M1.66663 10.0003C1.66663 7.76391 2.5476 5.73325 3.98144 4.23647M1.66663 10.0003C1.66663 12.2367 2.5476 14.2674 3.98144 15.7642M9.99996 1.66699C12.3659 1.66699 14.5016 2.65298 16.0185 4.23647M9.99996 1.66699C7.634 1.66699 5.49834 2.65298 3.98144 4.23647M16.0185 4.23647C14.5846 5.73325 13.7037 7.76391 13.7037 10.0003C13.7037 12.2367 14.5846 14.2674 16.0185 15.7642M3.98144 4.23647C5.41528 5.73325 6.29626 7.76391 6.29626 10.0003C6.29626 12.2367 5.41528 14.2674 3.98144 15.7642" stroke="white" stroke-width="1.5" stroke-linecap="round"/>
</svg>
