<svg width="20" height="20" viewBox="0 0 20 20" fill="none" xmlns="http://www.w3.org/2000/svg">
<g clip-path="url(#clip0_1_34654)">
<path d="M3.33332 9.16699H16.6667M3.33332 9.16699C2.41285 9.16699 1.66666 8.4208 1.66666 7.50033V6.66699C1.66666 5.74652 2.41285 5.00033 3.33332 5.00033H16.6667C17.5871 5.00033 18.3333 5.74652 18.3333 6.66699V7.50033C18.3333 8.4208 17.5871 9.16699 16.6667 9.16699M3.33332 9.16699L3.33332 16.667C3.33332 17.5875 4.07952 18.3337 4.99999 18.3337H15C15.9205 18.3337 16.6667 17.5875 16.6667 16.667V9.16699M9.99999 5.00033H13.3333C14.2538 5.00033 15 4.25413 15 3.33366C15 2.41318 14.2538 1.66699 13.3333 1.66699C11.4924 1.66699 9.99999 3.15938 9.99999 5.00033ZM9.99999 5.00033H6.66666C5.74618 5.00033 4.99999 4.25413 4.99999 3.33366C4.99999 2.41318 5.74618 1.66699 6.66666 1.66699C8.50761 1.66699 9.99999 3.15938 9.99999 5.00033ZM9.99999 5.00033V18.3337" stroke="white" stroke-width="1.5" stroke-linecap="round"/>
</g>
<defs>
<clipPath id="clip0_1_34654">
<rect width="20" height="20" fill="white"/>
</clipPath>
</defs>
</svg>
