<svg width="16" height="16" viewBox="0 0 16 16" fill="none" xmlns="http://www.w3.org/2000/svg">
<path fill-rule="evenodd" clip-rule="evenodd" d="M6.43535 12.4251L6.78616 13.2141C6.99923 13.6939 7.47499 14.003 8 14.003V14.003C8.52501 14.003 9.00078 13.6939 9.21384 13.2141L9.56465 12.4251C9.68953 12.1451 9.8996 11.9117 10.1649 11.7581V11.7581C10.4319 11.6041 10.7407 11.5385 11.0473 11.5707L11.9056 11.6621C12.4276 11.7173 12.9332 11.4598 13.1955 11.0051V11.0051C13.4582 10.5507 13.4284 9.98421 13.1195 9.55986L12.6113 8.86157C12.4303 8.61108 12.3336 8.30956 12.3351 8.00055V8.00055C12.3351 7.69237 12.4327 7.3921 12.6139 7.14286L13.1221 6.44457C13.431 6.02022 13.4608 5.45371 13.1982 4.9993V4.9993C12.9358 4.54462 12.4303 4.28714 11.9083 4.34236L11.0499 4.43373C10.7434 4.46592 10.4346 4.40032 10.1676 4.24632V4.24632C9.90174 4.09187 9.69162 3.85724 9.56732 3.57604L9.21384 2.78704C9.00078 2.30721 8.52501 1.99805 8 1.99805V1.99805C7.47499 1.99805 6.99923 2.30721 6.78616 2.78704L6.43535 3.57604C6.31106 3.85724 6.10093 4.09187 5.8351 4.24632V4.24632C5.56812 4.40032 5.25926 4.46592 4.95273 4.43373L4.09171 4.34236C3.5697 4.28714 3.06415 4.54462 2.80184 4.9993V4.9993C2.53918 5.45371 2.56898 6.02022 2.87787 6.44457L3.38608 7.14286C3.56732 7.3921 3.66492 7.69237 3.66486 8.00055V8.00055C3.66492 8.30872 3.56732 8.60899 3.38608 8.85824L2.87787 9.55653C2.56898 9.98087 2.53918 10.5474 2.80184 11.0018V11.0018C3.0644 11.4562 3.56976 11.7136 4.09171 11.6587L4.95006 11.5674C5.25659 11.5352 5.56545 11.6008 5.83243 11.7548V11.7548C6.09926 11.9088 6.31036 12.1435 6.43535 12.4251V12.4251Z" stroke="#A1A1AA" stroke-width="1.5"/>
<circle cx="7.99999" cy="8.00075" r="1.7654" stroke="#A1A1AA" stroke-width="1.5" stroke-linecap="round" stroke-linejoin="round"/>
</svg>
