<svg width="20" height="20" viewBox="0 0 20 20" fill="none" xmlns="http://www.w3.org/2000/svg">
<path d="M6.66671 5.00033H13.3334M16.6667 15.0003V5.00033C16.6667 3.15938 15.1743 1.66699 13.3334 1.66699L6.66671 1.66699C4.82576 1.66699 3.33337 3.15938 3.33337 5.00033L3.33337 15.0003C3.33337 16.8413 4.82576 18.3337 6.66671 18.3337H13.3334C15.1743 18.3337 16.6667 16.8413 16.6667 15.0003Z" stroke="white" stroke-width="1.5" stroke-linecap="round"/>
<path d="M7.29163 8.33301C7.29163 8.67819 7.0118 8.95801 6.66663 8.95801C6.32145 8.95801 6.04163 8.67819 6.04163 8.33301C6.04163 7.98783 6.32145 7.70801 6.66663 7.70801C7.0118 7.70801 7.29163 7.98783 7.29163 8.33301Z" fill="white"/>
<path d="M10.625 8.33301C10.625 8.67819 10.3451 8.95801 9.99996 8.95801C9.65478 8.95801 9.37496 8.67819 9.37496 8.33301C9.37496 7.98783 9.65478 7.70801 9.99996 7.70801C10.3451 7.70801 10.625 7.98783 10.625 8.33301Z" fill="white"/>
<path d="M13.9583 8.33301C13.9583 8.67819 13.6785 8.95801 13.3333 8.95801C12.9881 8.95801 12.7083 8.67819 12.7083 8.33301C12.7083 7.98783 12.9881 7.70801 13.3333 7.70801C13.6785 7.70801 13.9583 7.98783 13.9583 8.33301Z" fill="white"/>
<path d="M7.29163 11.667C7.29163 12.0122 7.0118 12.292 6.66663 12.292C6.32145 12.292 6.04163 12.0122 6.04163 11.667C6.04163 11.3218 6.32145 11.042 6.66663 11.042C7.0118 11.042 7.29163 11.3218 7.29163 11.667Z" fill="white"/>
<path d="M10.625 11.667C10.625 12.0122 10.3451 12.292 9.99996 12.292C9.65478 12.292 9.37496 12.0122 9.37496 11.667C9.37496 11.3218 9.65478 11.042 9.99996 11.042C10.3451 11.042 10.625 11.3218 10.625 11.667Z" fill="white"/>
<path d="M13.9583 11.667C13.9583 12.0122 13.6785 12.292 13.3333 12.292C12.9881 12.292 12.7083 12.0122 12.7083 11.667C12.7083 11.3218 12.9881 11.042 13.3333 11.042C13.6785 11.042 13.9583 11.3218 13.9583 11.667Z" fill="white"/>
<path d="M7.29163 15C7.29163 15.3452 7.0118 15.625 6.66663 15.625C6.32145 15.625 6.04163 15.3452 6.04163 15C6.04163 14.6548 6.32145 14.375 6.66663 14.375C7.0118 14.375 7.29163 14.6548 7.29163 15Z" fill="white"/>
<path d="M10.625 15C10.625 15.3452 10.3451 15.625 9.99996 15.625C9.65478 15.625 9.37496 15.3452 9.37496 15C9.37496 14.6548 9.65478 14.375 9.99996 14.375C10.3451 14.375 10.625 14.6548 10.625 15Z" fill="white"/>
<path d="M13.9583 15C13.9583 15.3452 13.6785 15.625 13.3333 15.625C12.9881 15.625 12.7083 15.3452 12.7083 15C12.7083 14.6548 12.9881 14.375 13.3333 14.375C13.6785 14.375 13.9583 14.6548 13.9583 15Z" fill="white"/>
</svg>
