<svg width="20" height="20" viewBox="0 0 20 20" fill="none" xmlns="http://www.w3.org/2000/svg">
<path d="M10.625 11.667C10.625 12.0122 10.3452 12.292 10 12.292C9.65482 12.292 9.375 12.0122 9.375 11.667C9.375 11.3218 9.65482 11.042 10 11.042C10.3452 11.042 10.625 11.3218 10.625 11.667Z" fill="white"/>
<path d="M13.5356 8.13146C12.6307 7.22664 11.3807 6.66699 10 6.66699C8.61931 6.66699 7.36931 7.22664 6.46449 8.13146M8.23225 9.89923C8.68467 9.44681 9.30966 9.16699 10 9.16699C10.6904 9.16699 11.3154 9.44681 11.7678 9.89923M9.16669 15.8337H10.8334M4.16669 5.00033L4.16669 15.0003C4.16669 16.8413 5.65907 18.3337 7.50002 18.3337H12.5C14.341 18.3337 15.8334 16.8413 15.8334 15.0003V5.00033C15.8334 3.15938 14.341 1.66699 12.5 1.66699L7.50002 1.66699C5.65907 1.66699 4.16669 3.15938 4.16669 5.00033Z" stroke="white" stroke-width="1.5" stroke-linecap="round" stroke-linejoin="round"/>
</svg>
