<svg width="20" height="20" viewBox="0 0 20 20" fill="none" xmlns="http://www.w3.org/2000/svg">
<path d="M9.10655 10.8221C8.79452 10.5497 8.32073 10.5818 8.04832 10.8938C7.7759 11.2059 7.80802 11.6796 8.12005 11.9521L8.6133 11.3871L9.10655 10.8221ZM14.1626 11.3871L14.6558 11.9521C14.6686 11.9409 14.6809 11.9294 14.6929 11.9174L14.1626 11.3871ZM9.47526 3.91526C9.17928 4.20504 9.17425 4.67989 9.46403 4.97586C9.7538 5.27184 10.2287 5.27687 10.5246 4.9871L9.99994 4.45118L9.47526 3.91526ZM10.8933 9.17873C11.2054 9.45114 11.6792 9.41903 11.9516 9.107C12.224 8.79497 12.1919 8.32118 11.8798 8.04877L11.3866 8.61375L10.8933 9.17873ZM5.83734 8.61375L5.34408 8.04877C5.33134 8.0599 5.31897 8.07146 5.307 8.08342L5.83734 8.61375ZM10.5246 16.0856C10.8206 15.7958 10.8256 15.321 10.5359 15.025C10.2461 14.729 9.77124 14.724 9.47526 15.0138L9.99994 15.5497L10.5246 16.0856ZM8.6133 11.3871L8.12005 11.9521C9.99211 13.5864 12.7837 13.5864 14.6558 11.9521L14.1626 11.3871L13.6693 10.8221C12.3624 11.9631 10.4135 11.9631 9.10655 10.8221L8.6133 11.3871ZM14.1626 11.3871L14.6929 11.9174L16.0795 10.5308L15.5492 10.0004L15.0189 9.4701L13.6322 10.8567L14.1626 11.3871ZM15.5492 10.0004L16.0851 10.5251C17.8775 8.69432 17.862 5.76179 16.0503 3.95008L15.52 4.48041L14.9896 5.01074C16.2199 6.24104 16.2305 8.23248 15.0133 9.47575L15.5492 10.0004ZM15.52 4.48041L16.0503 3.95008C14.2386 2.13837 11.3061 2.12284 9.47526 3.91526L9.99994 4.45118L10.5246 4.9871C11.7679 3.76989 13.7593 3.78043 14.9896 5.01074L15.52 4.48041ZM11.3866 8.61375L11.8798 8.04877C10.0078 6.41439 7.21614 6.41439 5.34408 8.04877L5.83734 8.61375L6.33059 9.17873C7.63751 8.03773 9.58642 8.03773 10.8933 9.17873L11.3866 8.61375ZM5.83734 8.61375L5.307 8.08342L3.92035 9.47011L4.45069 10.0004L4.98103 10.5308L6.36767 9.14407L5.83734 8.61375ZM4.45069 10.0004L3.91478 9.47575C2.12235 11.3065 2.13788 14.2391 3.94959 16.0508L4.47992 15.5205L5.01025 14.9901C3.77994 13.7598 3.7694 11.7684 4.98661 10.5251L4.45069 10.0004ZM4.47992 15.5205L3.94959 16.0508C5.7613 17.8625 8.69384 17.878 10.5246 16.0856L9.99994 15.5497L9.47526 15.0138C8.232 16.231 6.24055 16.2204 5.01025 14.9901L4.47992 15.5205Z" fill="white"/>
</svg>
